<svg xmlns="http://www.w3.org/2000/svg" width="77.782" height="100.611" viewBox="0 0 77.782 100.611">
  <g id="Group_215" data-name="Group 215" transform="translate(216.141 -75.237)">
    <path id="Path_39" data-name="Path 39" d="M38.558,134.816l-.308.324v12.535l.308.319h7.606l.31-.319v-2.044l-.31-.327H41.826l-.3-.317v-2.219l.3-.323H44.8l.307-.323v-2.03l-.307-.32H41.826l-.3-.333V137.83l.3-.32h4.2l.3-.324V135.14l-.3-.324ZM27.438,147.675v-4.782l-.137-1.509,1.721,3.839c.5,1.12.986,2.178,1.25,2.751h.41l2.958-6.589-.091,1.523c-.029.9-.04,4.768-.04,4.768l.312.319h2.087l.305-.319V135.14l-.305-.324H33.717l-.3.2c-.778,1.629-2.1,4.44-2.812,6.1l-.243,0c-.715-1.662-2.05-4.468-2.828-6.1l-.3-.2H25.019l-.307.324v12.535l.307.319h2.11Zm-10.095-2.127h2.341l.29.307.37,1.868.316.271h2.453l.265-.37-3.253-12.553-.316-.256H17.227l-.317.256-3.238,12.553.269.37h2.447l.322-.271.346-1.868ZM24.752,157.3h.569l.331.339,1.3,4.462.32.244H29.83l.258-.38-1.7-5.3.4-.331a3.93,3.93,0,0,0,1.238-3.162c0-2.93-1.628-4.01-3.888-4.01H22.117l-.307.325v12.535l.307.322h2.32l.316-.319Zm-8.9-8.343c-2.939,0-4.7,2.163-4.7,6.818s1.728,6.777,4.657,6.777c2.956,0,4.722-2.156,4.722-6.821,0-4.633-1.751-6.774-4.682-6.774M14.3,171.176h1.828l.308.328v4.864l.312.328h2.409l.306-.328V163.834l-.306-.325H16.747l-.312.325v4.257l-.308.336H14.3l-.322-.336,0-4.257-.305-.325H11.263l-.311.325v12.534l.311.328h2.413l.3-.328V171.5Zm9.79,3.067h1.937l.33.336.35,1.84.322.277h2.45l.274-.372L26.68,163.775l-.318-.266H23.788l-.319.264-3.085,12.551.269.372H23.1l.317-.28.329-1.835Zm12.242-10.408v4.738l-.314.325-1.249-2.369-1.5-2.831-.3-.188H30.868l-.31.325v12.534l.31.328h2.2l.31-.328v-5.413l.323-.333L36.79,176.5l.3.2h1.741l.307-.328V163.834l-.307-.325h-2.2Zm8.529,8.209h.846l.31.339-.046.54c-.1.847-.44,1.321-1.292,1.321-1.717,0-1.542-3.1-1.542-4.139,0-.895-.193-4.083,1.4-4.086a.768.768,0,0,1,.278.046,1.026,1.026,0,0,1,.375.238,2.282,2.282,0,0,1,.519,1.465l.382.246,2.264-.685.217-.387c-.551-2.307-1.493-3.631-4.019-3.631-3.02,0-4.514,2.393-4.514,6.793,0,4.583,1.639,6.794,4.466,6.8,2.929,0,4.336-2,4.336-5.2l0-1.752-.311-.321H44.86l-.31.321v1.766ZM81.8,156.481,54.736,174H53.208l-.317-.33v-2.2l.317-.333H55.8l.312-.325V168.79l-.312-.325H53.208l-.317-.331V166.54l.317-.336h3.379l.307-.323v-2.046l-.309-.325H50.223l-.309.325v12.534l.309.328h.355L5.549,205.848l-1.533-.894V176.4a4.046,4.046,0,0,0,2.042.5c2.387,0,3.458-1.35,4.035-3.575l-.2-.386L7.7,172.155l-.394.231c-.158.67-.211,1.623-.954,1.776a1.142,1.142,0,0,1-.242.024c-1.535,0-1.38-4.1-1.38-4.1v-.068s-.119-4,1.38-4a1.483,1.483,0,0,1,.242.026c.747.156.8,1.109.954,1.776l.394.229,2.189-.782.2-.392c-.564-2.181-1.606-3.516-3.893-3.564H6.1a4.067,4.067,0,0,0-2.081.493v-1.462H6.289l.3-.317v-4.838l.307-.322H9.376l.307-.321V154.5l-.307-.323-2.475,0-.307-.328V152.2l.307-.331h3.771l.3-.317v-2.066l-.3-.325H4.016v-3.506a4.761,4.761,0,0,0,4.406,2.55c3.234,0,4.774-2,4.774-5.2v-1.743l-.31-.322H8.793l-.311.322v1.765l.311.322h.992l.316.337-.057.55c-.135,1.029-.675,1.314-1.423,1.314-1.988,0-2.1-2.671-2.1-4.141,0-1.307.1-4.088,1.944-4.088.888,0,1.17,1.05,1.3,1.775l.36.235,2.554-.7.219-.385c-.6-2.3-1.646-3.632-4.419-3.632a4.778,4.778,0,0,0-4.466,2.558V106.135l1.533-.9,45.414,29.394a3.748,3.748,0,0,0-3.6,3.823c0,2.068.963,3.065,3.584,4.218.821.359,1.688.744,1.688,1.842a1,1,0,0,1-1.129,1.05c-.779,0-1.554-.811-2.028-1.356l-.437-.03-1.69,1.529-.036.437a4.837,4.837,0,0,0,4.138,2.064c2.448,0,4.272-1.425,4.272-3.88,0-2.2-.978-3.3-3.631-4.465-.709-.309-1.678-.7-1.678-1.676a.908.908,0,0,1,.946-.94c.886,0,1.271.5,1.844,1.171l.433.035,1.347-1.212L81.8,154.6ZM17.647,142.646c.2-1.072.741-3.755.741-3.755l.277-.005c.032.142.547,2.718.735,3.761l-.292.346H17.94Zm8.279,9.023c.773,0,1.136.439,1.136,1.6,0,1.178-.386,1.625-1.188,1.625h-.825l-.3-.325v-2.573l.3-.323Zm-10.1,0c1.8,0,1.712,2.885,1.712,4.105s.087,4.067-1.691,4.067c-1.8,0-1.712-2.888-1.712-4.111,0-1.2-.114-4.062,1.69-4.062m9.91,19.587-.3.43h-.8l-.283-.36c.247-1.43.506-2.686.678-3.739h.059c.141,1.047.418,2.256.65,3.669" transform="translate(-220.157 -30)" fill="red"/>
  </g>
</svg>
